<svg display="none" xmlns="http://www.w3.org/2000/svg">
    <symbol id="check" viewBox="0 0 511.985 511.985">
        <g>
            <path d="M500.088,83.681c-15.841-15.862-41.564-15.852-57.426,0L184.205,342.148L69.332,227.276    c-15.862-15.862-41.574-15.862-57.436,0c-15.862,15.862-15.862,41.574,0,57.436l143.585,143.585    c7.926,7.926,18.319,11.899,28.713,11.899c10.394,0,20.797-3.963,28.723-11.899l287.171-287.181    C515.95,125.265,515.95,99.542,500.088,83.681z"
                  data-original="#000000"/>
        </g>
    </symbol>
    <symbol id="success" viewBox="0 0 25 18">
        <g>
            <path d="M24.4191 0.581067C23.6456 -0.193933 22.3895 -0.193445 21.615 0.581067L8.99467 13.2095L3.38548 7.59696C2.61094 6.82196 1.35544 6.82196 0.580901 7.59696C-0.193634 8.37196 -0.193634 9.62822 0.580901 10.4032L7.59209 17.4186C7.97912 17.8059 8.4866 18 8.99414 18C9.50167 18 10.0096 17.8064 10.3967 17.4186L24.4191 3.38728C25.1936 2.61282 25.1936 1.35602 24.4191 0.581067Z"
                  fill="#8CEB41"/>
        </g>
    </symbol>
    <symbol id="error" viewBox="0 0 329.26933 329">
        <g>
            <path d='m194.800781 164.769531 128.210938-128.214843c8.34375-8.339844 8.34375-21.824219 0-30.164063-8.339844-8.339844-21.824219-8.339844-30.164063 0l-128.214844 128.214844-128.210937-128.214844c-8.34375-8.339844-21.824219-8.339844-30.164063 0-8.34375 8.339844-8.34375 21.824219 0 30.164063l128.210938 128.214843-128.210938 128.214844c-8.34375 8.339844-8.34375 21.824219 0 30.164063 4.15625 4.160156 9.621094 6.25 15.082032 6.25 5.460937 0 10.921875-2.089844 15.082031-6.25l128.210937-128.214844 128.214844 128.214844c4.160156 4.160156 9.621094 6.25 15.082032 6.25 5.460937 0 10.921874-2.089844 15.082031-6.25 8.34375-8.339844 8.34375-21.824219 0-30.164063zm0 0'
                   data-original='#000000'/>
        </g>
    </symbol>
    <symbol id="coins" viewBox="0 0 34 34">
        <g>
            <path d="M34 5.3125C34 6.50848 33.0504 7.61016 31.45 8.5C29.5176 9.56914 26.6422 10.3262 23.3285 10.552C23.0895 10.4391 22.8371 10.3262 22.5848 10.2199C19.9617 9.12422 16.482 8.5 12.75 8.5C12.1988 8.5 11.6609 8.51328 11.123 8.53984L11.05 8.5C9.44961 7.61016 8.5 6.50848 8.5 5.3125C8.5 2.37867 14.1512 0 21.25 0C28.2891 0 34 2.37867 34 5.3125ZM10.6715 10.698C11.3488 10.6516 12.0395 10.625 12.75 10.625C16.8805 10.625 20.5461 11.4418 22.877 12.7102C24.5238 13.6066 25.5 14.7223 25.5 15.9375C25.5 16.1434 25.4535 16.4621 25.3605 16.7145C25.0551 17.591 24.1785 18.3945 23.0363 19.0785C23.0297 19.0785 23.0164 19.0852 23.0098 19.0918C22.9898 19.1051 22.9699 19.1117 22.95 19.125C20.6258 20.4133 16.9203 21.25 12.75 21.25C8.79219 21.25 5.25008 20.4996 2.91125 19.3176C2.78707 19.2512 2.66621 19.1316 2.54934 19.125C0.948281 18.2352 0 17.1328 0 15.9375C0 13.6266 3.54809 11.6543 8.5 10.9305C9.19727 10.8242 9.92109 10.7445 10.6715 10.698ZM26.0246 12.3914C27.9039 12.0992 29.6238 11.6344 31.0848 11.0301C32.1672 10.5785 33.1699 10.0207 34 9.33672V11.6875C34 12.9691 32.9043 14.1512 31.0914 15.0676C30.1152 15.559 28.9398 15.9707 27.6117 16.2895C27.6184 16.1766 27.625 16.057 27.625 15.9375C27.625 14.4832 26.9211 13.2879 26.0246 12.3914ZM25.5 22.3125C25.5 23.5078 24.5504 24.6102 22.95 25.5C22.8305 25.5066 22.7109 25.6262 22.5914 25.6926C20.2473 26.8746 16.7078 27.625 12.75 27.625C8.57969 27.625 4.87555 26.7883 2.54934 25.5C0.948281 24.6102 1.99219e-05 23.5078 1.99219e-05 22.3125V19.9617C0.826758 20.6457 1.83414 21.2035 2.91723 21.6551C5.54094 22.7508 9.01797 23.375 12.75 23.375C16.482 23.375 19.9617 22.7508 22.5848 21.6551C23.1027 21.4426 23.6008 21.1969 24.0723 20.9313C24.4773 20.7055 24.8559 20.4531 25.2145 20.1875C25.3141 20.1145 25.407 20.0348 25.5 19.9617V22.3125ZM27.625 18.4676C28.827 18.1355 30.0488 17.8367 31.0848 17.4051C32.1672 16.9535 33.1699 16.3957 34 15.7117V18.0625C34 18.7598 33.668 19.457 33.0105 20.1145C31.9281 21.1969 30.0223 22.0867 27.6117 22.6645C27.6184 22.5516 27.625 22.432 27.625 22.3125V18.4676ZM12.75 29.75C16.482 29.75 19.9617 29.1258 22.5848 28.0301C23.6672 27.5785 24.6699 27.0207 25.5 26.3367V28.6875C25.5 31.6227 19.7891 34 12.75 34C5.70828 34 1.99219e-05 31.6227 1.99219e-05 28.6875V26.3367C0.826758 27.0207 1.83414 27.5785 2.91723 28.0301C5.54094 29.1258 9.01797 29.75 12.75 29.75Z"/>
        </g>
    </symbol>
    <symbol id="user" viewBox="0 0 19 22">
        <g>
            <g clip-path="url(#clip0_698_11455)">
                <path d="M9.88046 11.2187C12.7351 11.2187 15.0488 8.83666 15.0488 5.89843C15.0488 2.96021 12.7351 0.578125 9.88046 0.578125C7.02578 0.578125 4.71216 2.96021 4.71216 5.89843C4.71216 8.83666 7.02578 11.2187 9.88046 11.2187ZM11.9276 13.2139H7.83333C3.96962 13.2139 0.835938 16.4393 0.835938 20.4171C0.835938 21.2126 1.46259 21.8581 2.23542 21.8581H17.5263C18.2991 21.8594 18.925 21.2151 18.925 20.4171C18.925 16.4393 15.7917 13.2139 11.9276 13.2139Z"/>
            </g>
            <defs>
                <clipPath id="clip0_698_11455">
                    <rect width="18.0891" height="21.2812" transform="translate(0.835938 0.578125)"/>
                </clipPath>
            </defs>
        </g>
    </symbol>
    <symbol id="arrow" viewBox="0 0 300 512">
        <g>
            <g clip-path="url(#clip0_85_6)">
                <path d="M292.231 236.022L64.3841 8.17945C59.1143 2.90547 52.0795 0 44.5786 0C37.0776 0 30.0429 2.90547 24.7731 8.17945L7.99379 24.9546C-2.92462 35.8855 -2.92462 53.6513 7.99379 64.5656L199.322 255.894L7.7815 447.434C2.51169 452.708 -0.397949 459.739 -0.397949 467.236C-0.397949 474.741 2.51169 481.771 7.7815 487.05L24.5608 503.821C29.8348 509.095 36.8654 512 44.3663 512C51.8673 512 58.902 509.095 64.1718 503.821L292.231 275.77C297.513 270.479 300.414 263.416 300.398 255.906C300.414 248.368 297.513 241.308 292.231 236.022Z"/>
            </g>
            <defs>
                <clipPath id="clip0_85_6">
                    <rect width="300" height="512"/>
                </clipPath>
            </defs>
        </g>
    </symbol>
    <symbol id="arrowNext" viewBox="0 0 14 9">
        <g>
            <path d="M13.743 5.11811L10.243 8.61811C9.9009 8.96018 9.34719 8.95963 9.00566 8.61811C8.66387 8.27631 8.66387 7.7226 9.00566 7.3808L11.0141 5.37514H0.875C0.391289 5.37514 0 4.98412 0 4.47553C0 3.96693 0.391289 3.62514 0.875 3.62514H11.0141L9.00758 1.61865C8.66578 1.27686 8.66578 0.723145 9.00758 0.381348C9.34938 0.0395508 9.90309 0.0395508 10.2449 0.381348L13.7449 3.88135C14.0848 4.22396 14.0848 4.77631 13.743 5.11811Z"/>
        </g>
    </symbol>
    <symbol id="secure" viewBox="0 0 22 23">
        <g>
            <path d="M10.9454 3.00012e-09C11.159 -1.35495e-05 11.3634 0.0458886 11.5542 0.131947L20.1097 3.74038C21.1093 4.16186 21.859 5.14125 21.8499 6.28417C21.8272 10.8062 19.9734 19.0054 12.1449 22.7323C11.3861 23.0892 10.5047 23.0892 9.74591 22.7323C1.9151 19.0054 0.0631553 10.8062 0 6.28417C0.0349853 5.14125 0.782399 4.16186 1.78107 3.74038L10.3411 0.131947C10.5274 0.0458886 10.7364 -1.35495e-05 10.9454 3.00012e-09Z"/>
        </g>
    </symbol>
    <symbol id="settings" viewBox="0 0 23 23">
        <g>
            <path d="M22.2765 7.48398C22.4247 7.87031 22.2989 8.30605 21.9935 8.58906L20.0483 10.359C20.0978 10.7318 20.1247 11.1137 20.1247 11.5C20.1247 11.8863 20.0978 12.2682 20.0483 12.641L21.9935 14.4109C22.2989 14.6939 22.4247 15.1297 22.2765 15.516C22.0788 16.0506 21.8407 16.5672 21.5712 17.0568L21.3601 17.4207C21.0636 17.9148 20.7312 18.382 20.3673 18.8268C20.0978 19.1457 19.662 19.258 19.2667 19.1322L16.7646 18.3326C16.1626 18.7953 15.4573 19.1816 14.788 19.4781L14.2265 22.0432C14.1366 22.4475 13.8222 22.735 13.4089 22.8428C12.789 22.9461 12.1511 23 11.4593 23C10.8484 23 10.2105 22.9461 9.59054 22.8428C9.17726 22.735 8.8628 22.4475 8.77296 22.0432L8.21144 19.4781C7.50167 19.1816 6.83683 18.7953 6.23487 18.3326L3.73452 19.1322C3.33741 19.258 2.89943 19.1457 2.63349 18.8268C2.26917 18.382 1.93675 17.9148 1.64027 17.4207L1.43003 17.0568C1.15736 16.5672 0.920168 16.0506 0.721164 15.516C0.575617 15.1297 0.698254 14.6939 1.00642 14.4109L2.94974 12.641C2.90032 12.2682 2.87472 11.8863 2.87472 11.5C2.87472 11.1137 2.90032 10.7318 2.94974 10.359L1.00642 8.58906C0.698254 8.30605 0.575617 7.8748 0.721164 7.48398C0.920168 6.94941 1.1578 6.43281 1.43003 5.94316L1.63982 5.5793C1.93675 5.08516 2.26917 4.61797 2.63349 4.17549C2.89943 3.8543 3.33741 3.74289 3.73452 3.86957L6.23487 4.66738C6.83683 4.20289 7.50167 3.81656 8.21144 3.52322L8.77296 0.958184C8.8628 0.550293 9.17726 0.226406 9.59054 0.157676C10.2105 0.0539512 10.8484 0 11.4997 0C12.1511 0 12.789 0.0539512 13.4089 0.157676C13.8222 0.226406 14.1366 0.550293 14.2265 0.958184L14.788 3.52322C15.4573 3.81656 16.1626 4.20289 16.7646 4.66738L19.2667 3.86957C19.662 3.74289 20.0978 3.8543 20.3673 4.17549C20.7312 4.61797 21.0636 5.08516 21.3601 5.5793L21.5712 5.94316C21.8407 6.43281 22.0788 6.94941 22.2765 7.48398ZM11.4997 15.0938C13.4853 15.0938 15.0935 13.4855 15.0935 11.4596C15.0935 9.51445 13.4853 7.86582 11.4997 7.86582C9.51417 7.86582 7.90597 9.51445 7.90597 11.4596C7.90597 13.4855 9.51417 15.0938 11.4997 15.0938Z"/>
        </g>
    </symbol>
    <symbol id="mobile" viewBox="0 0 10 16">
        <g>
            <path d="M8.25 0H1.83333C0.820703 0 0 0.895313 0 2V14C0 15.1047 0.820703 16 1.83333 16H8.25C9.26263 16 10.0833 15.1047 10.0833 14V2C10.0833 0.895313 9.2612 0 8.25 0ZM5.04167 15C4.5332 15 4.125 14.5547 4.125 14C4.125 13.4453 4.5332 13 5.04167 13C5.55013 13 5.95833 13.4453 5.95833 14C5.95833 14.5547 5.55156 15 5.04167 15ZM8.25 2V12H1.83333V2H8.25Z"/>
        </g>
    </symbol>
    <symbol id="desktop" viewBox="0 0 512 310">
        <g>
            <g clip-path="url(#clip0_141_2)">
                <path d="M304.934 284.914V293.628H207.556V284.914H0V288.498C0 294.14 2.04792 299.772 6.15375 303.877C10.2496 307.973 15.8913 310.031 21.5331 310.031H490.465C496.107 310.031 501.738 307.983 505.844 303.877C509.94 299.782 511.998 294.14 511.998 288.498V284.914H304.934ZM68.6772 299.26H47.1531V296.7H68.6772V299.26Z"/>
                <path d="M60.9865 276.713H450.992C454.575 276.713 458.169 275.177 460.729 272.617C463.289 270.057 464.825 266.463 464.825 262.879V13.8013C464.825 10.2175 463.289 6.62362 460.729 4.06373C458.169 1.50383 454.575 -0.0321045 450.992 -0.0321045H60.9865C57.4027 -0.0321045 53.8088 1.50383 51.2489 4.06373C48.689 6.62362 47.1531 10.2175 47.1531 13.8013V262.869C47.1531 266.453 48.689 270.047 51.2489 272.607C54.3208 275.689 57.4027 276.713 60.9865 276.713ZM256.246 6.12164C258.805 6.12164 260.853 8.16956 260.853 10.7295C260.853 13.2894 258.805 15.3373 256.246 15.3373C253.686 15.3373 251.638 13.2894 251.638 10.7295C251.638 8.16956 253.686 6.12164 256.246 6.12164ZM69.1892 21.491H443.313V255.188H69.1892V21.491Z"/>
            </g>
            <defs>
                <clipPath id="clip0_141_2">
                    <rect width="512" height="310"/>
                </clipPath>
            </defs>
        </g>
    </symbol>
   
    <symbol id="search" viewBox="0 0 19 19">
        <g>
            <path d="M17.9055 15.9364L13.7411 11.772C14.6881 10.3661 15.1553 8.60958 14.9052 6.73787C14.4786 3.55422 11.8694 0.963393 8.68261 0.559931C3.94453 -0.0396075 -0.0396357 3.94456 0.559938 8.68264C0.963504 11.8708 3.55468 14.4822 6.73867 14.9066C8.61038 15.1567 10.3673 14.6896 11.7728 13.7425L15.9372 17.9069C16.4806 18.4503 17.3619 18.4503 17.9053 17.9069C18.4482 17.3628 18.4482 16.4791 17.9055 15.9364ZM3.25186 7.73634C3.25186 5.28085 5.24951 3.2832 7.705 3.2832C10.1605 3.2832 12.1581 5.28085 12.1581 7.73634C12.1581 10.1918 10.1605 12.1895 7.705 12.1895C5.24951 12.1895 3.25186 10.1925 3.25186 7.73634Z"/>
        </g>
    </symbol>
    <symbol id="teams" viewBox="0 0 34 27">
        <g>
            <path d="M17.0313 16.875C20.0626 16.875 22.475 14.4197 22.475 11.3906C22.475 8.36156 20.0177 5.90625 17.0313 5.90625C14.0001 5.90625 11.5877 8.36156 11.5877 11.3906C11.5401 14.4176 14.0006 16.875 17.0313 16.875ZM19.6713 18.5625H14.4019C10.2571 18.5625 6.89902 21.7107 6.89902 25.592C6.89902 26.3725 7.56958 27 8.39854 27H25.6747C26.5036 27 27.1742 26.3725 27.1742 25.592C27.1742 21.7107 23.8161 18.5625 19.6713 18.5625ZM27.1742 8.4375C29.5069 8.4375 31.3982 6.54855 31.3982 4.21875C31.3982 1.88895 29.508 0 27.1742 0C24.8415 0 22.9502 1.88895 22.9502 4.21875C22.9502 6.54855 24.8404 8.4375 27.1742 8.4375ZM9.85054 11.3906C9.85054 11.1033 9.90241 10.8301 9.93549 10.5516C9.3595 10.2357 8.7259 10.125 8.05534 10.125H4.79125C2.22306 10.125 0.140625 12.3293 0.140625 15.0451C0.140625 15.5883 0.557058 16.0312 1.07096 16.0312H11.6046C10.5264 14.7762 9.85054 13.1678 9.85054 11.3906ZM6.89902 8.4375C9.23172 8.4375 11.123 6.54855 11.123 4.21875C11.123 1.88895 9.23278 0 6.89902 0C4.56632 0 2.67502 1.88895 2.67502 4.21875C2.67502 6.54855 4.56632 8.4375 6.89902 8.4375ZM29.2809 10.125H26.0158C25.3399 10.125 24.7021 10.2852 24.1224 10.5595C24.154 10.8369 24.2068 11.1059 24.2068 11.3906C24.2068 13.1683 23.5321 14.7767 22.456 16.0312H33.0002C33.5155 16.0312 33.9326 15.5883 33.9326 15.0451C33.9326 12.3293 31.8523 10.125 29.2809 10.125Z"/>
        </g>
    </symbol>
    <symbol id="orgs" viewBox="0 0 36 29">
        <g>
            <path d="M13.1784 3.84375C13.1784 2.23865 14.4744 0.9375 16.0717 0.9375H19.9295C21.5269 0.9375 22.8228 2.23865 22.8228 3.84375V7.71875C22.8228 9.32324 21.5269 10.625 19.9295 10.625H19.4473V13.0469H28.6095C30.4721 13.0469 31.9851 14.5666 31.9851 16.4375V18.375H32.4673C34.0647 18.375 35.3606 19.6768 35.3606 21.2812V25.1562C35.3606 26.7607 34.0647 28.0625 32.4673 28.0625H28.6095C27.0122 28.0625 25.7162 26.7607 25.7162 25.1562V21.2812C25.7162 19.6768 27.0122 18.375 28.6095 18.375H29.0917V16.4375C29.0917 16.1711 28.8747 15.9531 28.6095 15.9531H19.4473V18.375H19.9295C21.5269 18.375 22.8228 19.6768 22.8228 21.2812V25.1562C22.8228 26.7607 21.5269 28.0625 19.9295 28.0625H16.0717C14.4744 28.0625 13.1784 26.7607 13.1784 25.1562V21.2812C13.1784 19.6768 14.4744 18.375 16.0717 18.375H16.554V15.9531H7.39174C7.12651 15.9531 6.90951 16.1711 6.90951 16.4375V18.375H7.39174C8.9891 18.375 10.2851 19.6768 10.2851 21.2812V25.1562C10.2851 26.7607 8.9891 28.0625 7.39174 28.0625H3.53396C1.93599 28.0625 0.640625 26.7607 0.640625 25.1562V21.2812C0.640625 19.6768 1.93599 18.375 3.53396 18.375H4.01618V16.4375C4.01618 14.5666 5.52734 13.0469 7.39174 13.0469H16.554V10.625H16.0717C14.4744 10.625 13.1784 9.32324 13.1784 7.71875V3.84375Z"/>
        </g>
    </symbol>
    <symbol id="discover" viewBox="0 0 16 16">
        <g>
            <path d="M9 8C9 8.55313 8.55313 9 8 9C7.44688 9 7 8.55313 7 8C7 7.44688 7.44688 7 8 7C8.55313 7 9 7.44688 9 8ZM0 8C0 3.58125 3.58125 0 8 0C12.4187 0 16 3.58125 16 8C16 12.4187 12.4187 16 8 16C3.58125 16 0 12.4187 0 8ZM10.1594 9.58438L11.8938 5.075C12.1281 4.44062 11.5312 3.87187 10.925 4.10625L6.41563 5.84062C6.15 5.94062 5.94062 6.15 5.84062 6.41563L4.10625 10.925C3.87187 11.5312 4.44062 12.1281 5.075 11.8938L9.58438 10.1594C9.85 10.0594 10.0594 9.85 10.1594 9.58438Z"/>
        </g>
    </symbol>
    <symbol id="members" viewBox="0 0 21 16">
        <g>
            <path d="M10.0093 10C11.8056 10 13.2352 8.545 13.2352 6.75C13.2352 4.955 11.779 3.5 10.0093 3.5C8.21301 3.5 6.78342 4.955 6.78342 6.75C6.75526 8.54375 8.21333 10 10.0093 10ZM11.5737 11H8.45112C5.99495 11 4.00497 12.8656 4.00497 15.1656C4.00497 15.6281 4.40234 16 4.89358 16H15.1313C15.6225 16 16.0199 15.6281 16.0199 15.1656C16.0199 12.8656 14.0299 11 11.5737 11ZM16.0199 5C17.4022 5 18.523 3.88063 18.523 2.5C18.523 1.11937 17.4029 0 16.0199 0C14.6376 0 13.5168 1.11937 13.5168 2.5C13.5168 3.88063 14.6369 5 16.0199 5ZM5.75402 6.75C5.75402 6.57972 5.78476 6.41781 5.80437 6.25281C5.46304 6.06562 5.08757 6 4.6902 6H2.75592C1.23403 6 0 7.30625 0 8.91562C0 9.2375 0.246775 9.5 0.55131 9.5H6.79344C6.15452 8.75625 5.75402 7.80312 5.75402 6.75ZM4.00497 5C5.38732 5 6.50808 3.88063 6.50808 2.5C6.50808 1.11937 5.38794 0 4.00497 0C2.62263 0 1.50187 1.11937 1.50187 2.5C1.50187 3.88063 2.62263 5 4.00497 5ZM17.2683 6H15.3334C14.9329 6 14.555 6.09491 14.2114 6.2575C14.2302 6.42188 14.2615 6.58125 14.2615 6.75C14.2615 7.80344 13.8616 8.75656 13.2239 9.5H19.4723C19.7777 9.5 20.0249 9.2375 20.0249 8.91562C20.0249 7.30625 18.7921 6 17.2683 6Z"/>
        </g>
    </symbol>
    <symbol id="results" viewBox="0 0 20 16">
        <g>
            <path d="M17.8501 0.128906H4.96483C4.31691 0.128906 3.79345 0.632274 3.79345 1.25297V13.0556C3.79345 13.3647 3.53135 13.6176 3.20776 13.6176C2.88416 13.6176 2.62206 13.3647 2.62206 13.0556V2.37703H1.45068C0.803857 2.37703 0.279297 2.87934 0.279297 3.50109V13.6176C0.279297 14.8594 1.32805 15.8657 2.62206 15.8657H16.6787C17.9727 15.8657 19.0214 14.8594 19.0214 13.6176V1.25297C19.0214 0.632274 18.498 0.128906 17.8501 0.128906ZM10.2361 13.6176H6.72191C6.39978 13.6176 6.13622 13.3647 6.13622 13.0556C6.13622 12.7465 6.39978 12.4936 6.72191 12.4936H10.2361C10.5595 12.4936 10.8218 12.7451 10.8218 13.0556C10.8218 13.3647 10.5582 13.6176 10.2361 13.6176ZM10.2361 10.2454H6.72191C6.39978 10.2454 6.13622 9.99253 6.13622 9.68342C6.13622 9.3743 6.39978 9.12139 6.72191 9.12139H10.2361C10.5582 9.12139 10.8218 9.3743 10.8218 9.68342C10.8218 9.99253 10.5582 10.2454 10.2361 10.2454ZM16.093 13.6176H12.5788C12.2554 13.6176 11.9931 13.366 11.9931 13.0556C11.9931 12.7451 12.2554 12.4936 12.5788 12.4936H16.093C16.4164 12.4936 16.6787 12.7451 16.6787 13.0556C16.6787 13.3647 16.4151 13.6176 16.093 13.6176ZM16.093 10.2454H12.5788C12.2567 10.2454 11.9931 9.99253 11.9931 9.68342C11.9931 9.3743 12.2567 9.12139 12.5788 9.12139H16.093C16.4151 9.12139 16.6787 9.3743 16.6787 9.68342C16.6787 9.99253 16.4151 10.2454 16.093 10.2454ZM16.6787 6.31124C16.6787 6.62035 16.4151 6.87327 16.093 6.87327H6.72191C6.39978 6.87327 6.13622 6.62035 6.13622 6.31124V2.93906C6.13622 2.62994 6.39978 2.37703 6.72191 2.37703H16.093C16.4151 2.37703 16.6787 2.62994 16.6787 2.93906V6.31124Z"/>
        </g>
    </symbol>
    <symbol id="competitions" viewBox="0 0 19 17">
        <g>
            <path d="M18.5381 3.37516C18.4575 3.03797 18.1568 2.80078 17.8128 2.80078H14.6887C14.6962 2.41172 14.692 2.06016 14.6838 1.76891C14.6701 1.22672 14.233 0.800781 13.6938 0.800781H5.77179C5.2325 0.800781 4.79549 1.22672 4.77999 1.76891C4.7459 2.06016 4.76759 2.41172 4.77689 2.80078H1.65149C1.30746 2.80078 1.00921 3.03797 0.927853 3.37516C0.902686 3.48141 0.319696 6.02578 1.95554 8.48516C3.11594 10.2295 5.0735 11.4548 7.76685 12.1539C8.34643 12.3041 8.74036 12.8433 8.74036 13.4467C8.74098 14.1914 8.1366 14.8008 7.39585 14.8008H7.25328C6.43164 14.8008 5.7659 15.4723 5.7659 16.3008C5.7659 16.5769 5.9879 16.8008 6.2339 16.8008H13.1486C13.4224 16.8008 13.6166 16.5769 13.6166 16.3008C13.6166 15.4723 12.9508 14.8008 12.1292 14.8008H11.9853C11.2458 14.8008 10.6414 14.1914 10.6414 13.4461C10.6414 12.8427 11.0353 12.3033 11.6149 12.1533C14.3101 11.4552 16.267 10.2298 17.4262 8.48453C19.1455 6.02578 18.5629 3.48141 18.5381 3.37516ZM3.20582 7.66953C2.33986 6.38203 2.26362 5.04141 2.30608 4.30078H4.79766C4.96375 6.16391 5.42838 8.39766 6.58506 10.2102C5.06513 9.60078 3.93386 8.75078 3.20582 7.66953ZM16.26 7.66953C15.5335 8.75078 14.4023 9.59922 12.8817 10.2077C14.0378 8.39766 14.5027 6.16328 14.667 4.30078H17.1585C17.1743 5.04141 17.1248 6.38516 16.26 7.66953Z"/>
        </g>
    </symbol>
    <symbol id="info" viewBox="0 0 16 16">
        <g>
            <path d="M8.11451 0.128906C3.76844 0.128906 0.246094 3.65125 0.246094 7.99733C0.246094 12.3434 3.76844 15.8657 8.11451 15.8657C12.4606 15.8657 15.9829 12.3434 15.9829 7.99733C15.9829 3.65125 12.4606 0.128906 8.11451 0.128906ZM8.11451 4.06312C8.65762 4.06312 9.09807 4.50356 9.09807 5.04667C9.09807 5.58977 8.65762 6.03022 8.11451 6.03022C7.57141 6.03022 7.13096 5.5907 7.13096 5.04667C7.13096 4.50264 7.57049 4.06312 8.11451 4.06312ZM9.34396 11.9315H6.88507C6.47936 11.9315 6.14741 11.6027 6.14741 11.1939C6.14741 10.7851 6.47782 10.4562 6.88507 10.4562H7.37685V8.4891H7.13096C6.72371 8.4891 6.3933 8.15869 6.3933 7.75144C6.3933 7.34419 6.72525 7.01377 7.13096 7.01377H8.11451C8.52177 7.01377 8.85218 7.34419 8.85218 7.75144V10.4562H9.34396C9.75121 10.4562 10.0816 10.7866 10.0816 11.1939C10.0816 11.6011 9.75274 11.9315 9.34396 11.9315Z"/>
        </g>
    </symbol>
    <symbol id="badges" viewBox="0 0 13 16">
        <g>
            <path d="M9.06679 11.1416C9.49648 10.893 9.6056 10.2183 9.95445 9.86946C10.3033 9.5206 10.978 9.41211 11.2266 8.98211C11.4719 8.55826 11.2317 7.92049 11.361 7.4364C11.4857 6.96767 11.9898 6.53737 11.9898 6.03022C11.9898 5.52308 11.459 5.09216 11.3339 4.62466C11.2046 4.14057 11.4449 3.5028 11.1997 3.07895C10.9512 2.64926 10.2767 2.54045 9.92786 2.1916C9.57901 1.84275 9.4702 1.16809 9.04051 0.919437C8.61666 0.674194 7.97889 0.914405 7.4948 0.784967C7.05358 0.659717 6.62328 0.128906 6.11614 0.128906C5.60899 0.128906 5.17869 0.659717 4.7115 0.784813C4.22587 0.913904 3.58963 0.673856 3.16486 0.918822C2.73517 1.16748 2.62637 1.84213 2.27751 2.19068C1.92897 2.53953 1.254 2.64834 1.00535 3.07803C0.760076 3.50065 1.00043 4.13996 0.871033 4.62251C0.74563 5.09277 0.214844 5.52308 0.214844 6.03022C0.214844 6.53737 0.745655 6.96829 0.87075 7.43578C1.00006 7.91987 0.75964 8.55764 1.00479 8.98149C1.2537 9.41118 1.92804 9.51876 2.27659 9.86915C2.62545 10.218 2.73425 10.8927 3.16425 11.1416C3.5881 11.3869 4.22556 11.1465 4.70966 11.2759C5.17869 11.3998 5.60899 11.9315 6.11614 11.9315C6.62328 11.9315 7.0542 11.4007 7.522 11.2756C8.0064 11.1478 8.64264 11.3875 9.06679 11.1416ZM3.65725 6.03022C3.65725 4.66954 4.75791 3.57134 6.11614 3.57134C7.47436 3.57134 8.57502 4.66954 8.57502 6.03022C8.57502 7.38783 7.47436 8.4891 6.11614 8.4891C4.75791 8.4891 3.65725 7.38875 3.65725 6.03022ZM0.267654 13.4438C0.167762 13.6954 0.212914 13.981 0.386756 14.1891C0.560599 14.3966 0.833351 14.4933 1.09737 14.4395L2.48633 14.1618L3.14501 15.461C3.27182 15.7121 3.52201 15.8657 3.80171 15.8657C3.81228 15.8657 3.82212 15.8654 3.83269 15.8649C4.12469 15.8534 4.37519 15.678 4.48553 15.4076L5.51764 12.8847C3.86681 12.7422 2.38257 12.0204 1.26993 10.9192L0.267654 13.4438ZM10.9601 10.9203C9.84902 12.0216 8.36448 12.7433 6.71241 12.8859L7.74453 15.4087C7.85499 15.6791 8.10537 15.8544 8.39736 15.8661C8.40904 15.8381 8.39367 15.8657 8.43056 15.8657C8.71007 15.8657 8.96014 15.7129 9.08677 15.4619L9.74544 14.1624L11.1344 14.4401C11.3986 14.4938 11.6714 14.3971 11.845 14.1896C12.0189 13.9817 12.064 13.696 11.9641 13.4443L10.9601 10.9203Z"/>
        </g>
    </symbol>
    <symbol id="twitch" viewBox="0 0 438 512">
        <g>
            <g clip-path="url(#clip0_150_5)">
                <path d="M408.731 235.768L331.873 315.7L256.04 317.75L182.256 392.558V321.849L103.349 319.799V26.7141H408.731V235.768Z" fill="white"/>
                <path d="M90.9998 0L-0.429199 91.429V420.572H109.285V512L200.714 420.571H273.857L438.429 256V0H90.9998ZM401.857 237.714L328.714 310.857H255.571L191.571 374.857V310.857H109.285V36.571H401.856V237.714H401.857Z" fill="#9146FF"/>
                <path d="M310.429 100.571H347V210.285H310.429V100.571Z" fill="#9146FF"/>
                <path d="M209.857 100.571H246.428V210.285H209.857V100.571Z" fill="#9146FF"/>
            </g>
            <defs>
                <clipPath id="clip0_150_5">
                    <rect width="438" height="512" fill="white"/>
                </clipPath>
            </defs>
        </g>
    </symbol>
    <symbol id="twitter" viewBox="0 0 512 416">
        <g>
            <path d="M512 49.248C492.96 57.6 472.672 63.136 451.52 65.824C473.28 52.832 489.888 32.416 497.696 7.808C477.408 19.904 455.008 28.448 431.136 33.216C411.872 12.704 384.416 0 354.464 0C296.352 0 249.568 47.168 249.568 104.992C249.568 113.312 250.272 121.312 252 128.928C164.736 124.672 87.52 82.848 35.648 19.136C26.592 34.848 21.28 52.832 21.28 72.192C21.28 108.544 40 140.768 67.904 159.424C51.04 159.104 34.496 154.208 20.48 146.496C20.48 146.816 20.48 147.232 20.48 147.648C20.48 198.656 56.864 241.024 104.576 250.784C96.032 253.12 86.72 254.24 77.056 254.24C70.336 254.24 63.552 253.856 57.184 252.448C70.784 294.016 109.376 324.576 155.264 325.568C119.552 353.504 74.208 370.336 25.12 370.336C16.512 370.336 8.256 369.952 0 368.896C46.496 398.88 101.6 416 161.024 416C354.176 416 459.776 256 459.776 117.312C459.776 112.672 459.616 108.192 459.392 103.744C480.224 88.96 497.728 70.496 512 49.248Z" fill="#03A9F4"/>
        </g>
    </symbol>
    <symbol id="youtube" viewBox="0 0 512 358">
        <g>
            <g clip-path="url(#clip0_150_14)">
                <path d="M501.451 56.0945C495.549 34.161 478.256 16.872 456.326 10.9658C416.26 0.000976562 255.995 0.000976562 255.995 0.000976562C255.995 0.000976562 95.734 0.000976562 55.6677 10.5478C34.16 16.4501 16.4452 34.1649 10.5429 56.0945C0 96.1568 0 179.242 0 179.242C0 179.242 0 262.746 10.5429 302.39C16.4492 324.32 33.7381 341.613 55.6716 347.519C96.1558 358.484 255.999 358.484 255.999 358.484C255.999 358.484 416.26 358.484 456.326 347.937C478.26 342.035 495.549 324.742 501.455 302.812C511.998 262.746 511.998 179.664 511.998 179.664C511.998 179.664 512.42 96.1568 501.451 56.0945Z" fill="#FF0000"/>
                <path d="M204.968 256L338.237 179.243L204.968 102.485V256Z" fill="white"/>
            </g>
            <defs>
                <clipPath id="clip0_150_14">
                    <rect width="512" height="358" fill="white"/>
                </clipPath>
            </defs>
        </g>
    </symbol>
    <symbol id="facebook" viewBox="0 0 512 512">
        <g>
            <path d="M512 256C512 383.78 418.38 489.69 296 508.89V330H355.65L367 256H296V207.98C296 187.73 305.92 168 337.72 168H370V105C370 105 340.7 100 312.69 100C254.22 100 216 135.44 216 199.6V256H151V330H216V508.89C93.62 489.69 0 383.78 0 256C0 114.62 114.62 0 256 0C397.38 0 512 114.62 512 256Z" fill="#1877F2"/>
            <path d="M355.65 330L367 256H296V207.979C296 187.734 305.918 168 337.719 168H370V105C370 105 340.704 100 312.695 100C254.219 100 216 135.44 216 199.6V256H151V330H216V508.889C229.034 510.934 242.392 512 256 512C269.608 512 282.966 510.934 296 508.889V330H355.65Z" fill="white"/>
        </g>
    </symbol>
    <symbol id="flag" viewBox="0 0 21 21">
        <g>
            <path d="M2.625 20.3438C2.625 20.7047 2.32764 21 1.96875 21H0.65625C0.297363 21 0 20.7047 0 20.3438V1.3125C0 0.584473 0.584473 0 1.3125 0C2.04053 0 2.625 0.584473 2.625 1.3125V20.3438ZM19.5357 0C19.2747 0 19.0021 0.0553711 18.7425 0.173619C16.8685 1.02921 15.4793 1.3196 14.321 1.3196C11.8617 1.3196 10.4323 0.0128379 7.59855 0.0124277C6.59941 0.0125303 5.39766 0.199623 3.9375 0.645996V15.022C5.25 14.6125 6.39311 14.4437 7.41768 14.4437C10.4377 14.4437 12.5405 15.7471 15.5634 15.7471C16.8722 15.7471 18.3533 15.5022 20.1202 14.8001C20.676 14.5975 21 14.1258 21 13.6213V1.26041C21 0.455273 20.315 0 19.5357 0Z"/>
        </g>
    </symbol>
    <symbol id="more" viewBox="0 0 16 5">
        <g>
            <path d="M4.10156 2.28125C4.10156 3.40206 3.19222 4.3125 2.07031 4.3125C0.94841 4.3125 0.0390625 3.40206 0.0390625 2.28125C0.0390625 1.16044 0.94841 0.25 2.07031 0.25C3.19222 0.25 4.10156 1.16044 4.10156 2.28125ZM9.90513 2.28125C9.90513 3.40206 8.9947 4.3125 7.87388 4.3125C6.75307 4.3125 5.84263 3.40206 5.84263 2.28125C5.84263 1.16044 6.75307 0.25 7.87388 0.25C8.9947 0.25 9.90513 1.16044 9.90513 2.28125ZM11.6462 2.28125C11.6462 1.16044 12.5566 0.25 13.6775 0.25C14.7983 0.25 15.7087 1.16044 15.7087 2.28125C15.7087 3.40206 14.7983 4.3125 13.6775 4.3125C12.5566 4.3125 11.6462 3.40206 11.6462 2.28125Z"/>
        </g>
    </symbol>
    <symbol id="plus" viewBox="0 0 16 16">
        <g>
            <path d="M15.0338 8C15.0338 8.62191 14.5348 9.12535 13.9194 9.12535H8.90471V14.1878C8.90471 14.8098 8.40568 15.3125 7.79034 15.3125C7.17499 15.3125 6.67596 14.8098 6.67596 14.1878V9.12535H1.66125C1.04591 9.12535 0.546875 8.62191 0.546875 8C0.546875 7.37808 1.04591 6.87535 1.66125 6.87535H6.67596V1.81285C6.67596 1.19094 7.17499 0.6875 7.79034 0.6875C8.40568 0.6875 8.90471 1.19094 8.90471 1.81285V6.87535H13.9194C14.5358 6.875 15.0338 7.37773 15.0338 8Z"/>
        </g>
    </symbol>
    <symbol id="locked" viewBox="0 0 19 22">
        <g>
            <path d="M3.39286 8.14286V6.10714C3.39286 2.73422 6.12835 0 9.5 0C12.8717 0 15.6071 2.73422 15.6071 6.10714V8.14286H16.2857C17.7828 8.14286 19 9.36004 19 10.8571V19C19 20.4971 17.7828 21.7143 16.2857 21.7143H2.71429C1.21507 21.7143 0 20.4971 0 19V10.8571C0 9.36004 1.21507 8.14286 2.71429 8.14286H3.39286ZM6.10714 8.14286H12.8929V6.10714C12.8929 4.23344 11.3746 2.71429 9.5 2.71429C7.62545 2.71429 6.10714 4.23344 6.10714 6.10714V8.14286Z"/>
        </g>
    </symbol>
    <symbol id="remove" viewBox="0 0 13 15">
        <g>
            <path d="M3.92321 0.513326C4.07991 0.198714 4.40201 0 4.75313 0H8.24687C8.59799 0 8.92009 0.198714 9.07679 0.513326L9.28571 0.928571H12.0714C12.585 0.928571 13 1.3444 13 1.85714C13 2.36989 12.585 2.78571 12.0714 2.78571H0.928571C0.415826 2.78571 0 2.36989 0 1.85714C0 1.3444 0.415826 0.928571 0.928571 0.928571H3.71429L3.92321 0.513326ZM11.4562 13.5252C11.4098 14.2855 10.8033 14.8571 10.0663 14.8571H2.93371C2.1981 14.8571 1.58931 14.2855 1.54346 13.5252L0.902455 3.71429H12.0714L11.4562 13.5252Z"/>
        </g>
    </symbol>
    <symbol id="replace" viewBox="0 0 15 15">
        <g>
            <path d="M13.5938 0.46875C13.0761 0.46875 12.6562 0.887988 12.6562 1.40625V3.57686C11.4873 1.94883 9.5918 0.9375 7.5 0.9375C4.73145 0.9375 2.30244 2.70527 1.45254 5.33789C1.29322 5.83037 1.56378 6.35977 2.05635 6.51797C2.55117 6.6791 3.07822 6.40629 3.23701 5.91475C3.83496 4.05762 5.54883 2.8125 7.5 2.8125C8.97949 2.8125 10.3201 3.53174 11.1445 4.6875H9.84375C9.32607 4.6875 8.90625 5.10674 8.90625 5.625C8.90625 6.14326 9.32607 6.5625 9.84375 6.5625H13.5938C14.1114 6.5625 14.5312 6.14326 14.5312 5.625V1.40625C14.5312 0.887988 14.1123 0.46875 13.5938 0.46875ZM12.9434 8.48438C12.4477 8.32506 11.9215 8.59606 11.7627 9.0876C11.165 10.9424 9.45117 12.1875 7.5 12.1875C6.02051 12.1875 4.68018 11.4683 3.85547 10.3125H5.15625C5.67393 10.3125 6.09375 9.89326 6.09375 9.375C6.09375 8.85674 5.67393 8.4375 5.15625 8.4375H1.40625C0.888574 8.4375 0.46875 8.85674 0.46875 9.375V13.5938C0.46875 14.112 0.888574 14.5312 1.40625 14.5312C1.92393 14.5312 2.34375 14.112 2.34375 13.5938V11.4231C3.5127 13.0518 5.4082 14.0625 7.47363 14.0625C10.2407 14.0625 12.6709 12.2947 13.5205 9.66211C13.708 9.16992 13.4355 8.61621 12.9434 8.48438Z"/>
        </g>
    </symbol>
    <symbol id="edit" viewBox="0 0 13 17">
        <g>
            <path d="M11.375 2.125H9.55094C9.10339 0.889844 7.91172 0 6.5 0C5.08828 0 3.89661 0.889844 3.44974 2.125H1.625C0.727865 2.125 0 2.8382 0 3.71875V15.4062C0 16.2861 0.727865 17 1.625 17H11.375C12.2721 17 13 16.2868 13 15.4062V3.71875C13 2.8382 12.2721 2.125 11.375 2.125ZM3.25 13.0156C2.80143 13.0156 2.4375 12.6587 2.4375 12.2188C2.4375 11.7788 2.80143 11.4219 3.25 11.4219C3.69857 11.4219 4.0625 11.7788 4.0625 12.2188C4.0625 12.6587 3.70026 13.0156 3.25 13.0156ZM3.25 9.82812C2.80143 9.82812 2.4375 9.47119 2.4375 9.03125C2.4375 8.59131 2.80143 8.23438 3.25 8.23438C3.69857 8.23438 4.0625 8.59297 4.0625 9.03125C4.0625 9.46953 3.70026 9.82812 3.25 9.82812ZM6.5 2.125C7.0982 2.125 7.58333 2.6008 7.58333 3.1875C7.58333 3.7742 7.0982 4.25 6.5 4.25C5.9018 4.25 5.41667 3.7752 5.41667 3.1875C5.41667 2.6008 5.90078 2.125 6.5 2.125ZM10.2917 12.75H5.95833C5.66042 12.75 5.41667 12.5109 5.41667 12.2188C5.41667 11.9266 5.66042 11.6875 5.95833 11.6875H10.2917C10.5896 11.6875 10.8333 11.9265 10.8333 12.2188C10.8333 12.5109 10.5896 12.75 10.2917 12.75ZM10.2917 9.5625H5.95833C5.66042 9.5625 5.41667 9.32344 5.41667 9.03125C5.41667 8.73906 5.66042 8.5 5.95833 8.5H10.2917C10.5896 8.5 10.8333 8.73906 10.8333 9.03125C10.8333 9.32344 10.5896 9.5625 10.2917 9.5625Z"/>
        </g>
    </symbol>
    <symbol id="close" viewBox="0 0 12 12">
        <g>
            <path d="M10.8912 9.70635C11.3295 10.1458 11.3295 10.8577 10.8912 11.2972C10.6738 11.5169 10.3862 11.6259 10.0987 11.6259C9.81117 11.6259 9.52434 11.516 9.30553 11.2963L5.61039 7.59346L1.9156 11.2954C1.69644 11.5169 1.40926 11.6259 1.12208 11.6259C0.834896 11.6259 0.548065 11.5169 0.328734 11.2954C-0.109578 10.856 -0.109578 10.144 0.328734 9.70459L4.02458 5.99912L0.328734 2.29541C-0.109578 1.85596 -0.109578 1.14404 0.328734 0.70459C0.767045 0.265137 1.47711 0.265137 1.91542 0.70459L5.61039 4.41182L9.30623 0.706348C9.74455 0.266895 10.4546 0.266895 10.8929 0.706348C11.3312 1.1458 11.3312 1.85771 10.8929 2.29717L7.19708 6.00264L10.8912 9.70635Z"/>
        </g>
    </symbol>
    <symbol id="minus" viewBox="0 0 30 4">
        <g>
            <path d="M1.79993 4H28.1998C29.1941 4 30 3.10473 30 1.99986C30 0.895274 29.1944 0 28.1998 0H1.79993C0.805878 0.000273617 0 0.895547 0 2.00014C0 3.10473 0.805878 4 1.79993 4Z"/>
        </g>
    </symbol>
    <symbol id="pencil" viewBox="0 0 17 17">
        <g>
            <path d="M12.2836 1.14839C13.0648 0.367203 14.3336 0.367203 15.1148 1.14839L16.3461 2.38058C17.1273 3.16152 17.1273 4.42902 16.3461 5.21027L14.8336 6.72277L10.7711 2.66089L12.2836 1.14839ZM14.1273 7.42902L6.83984 14.7134C6.51484 15.0384 6.11171 15.279 5.67109 15.4071L1.91077 16.5134C1.64765 16.5915 1.36296 16.5196 1.1689 16.2978C0.97483 16.1321 0.902274 15.8478 0.979712 15.5821L2.08577 11.8228C2.21577 11.3821 2.45421 10.979 2.77952 10.654L10.0648 3.36777L14.1273 7.42902Z"/>
        </g>
    </symbol>
    <symbol id="time" viewBox="0 0 14 14">
        <g>
            <path d="M7 14C3.13359 14 0 10.8664 0 7C0 3.13359 3.13359 0 7 0C10.8664 0 14 3.13359 14 7C14 10.8664 10.8664 14 7 14ZM6.34375 7C6.34375 7.21875 6.45312 7.42383 6.63633 7.52227L9.26133 9.27227C9.56211 9.49648 9.96953 9.41445 10.1473 9.11367C10.3715 8.81289 10.2895 8.40547 9.98867 8.20312L7.65625 6.65V3.28125C7.65625 2.91758 7.36367 2.625 6.97539 2.625C6.63633 2.625 6.31914 2.91758 6.31914 3.28125L6.34375 7Z"/>
        </g>
    </symbol>
    <symbol id="format" viewBox="0 0 19 15">
        <g>
            <path d="M15.0361 4.6875C16.3336 4.6875 17.3855 3.63809 17.3855 2.34375C17.3855 1.04941 16.3342 0 15.0361 0C13.7387 0 12.6867 1.04941 12.6867 2.34375C12.6867 3.63809 13.7381 4.6875 15.0361 4.6875ZM3.75904 4.6875C5.05649 4.6875 6.10843 3.63809 6.10843 2.34375C6.10843 1.04941 5.05708 0 3.75904 0C2.46158 0 1.40964 1.04941 1.40964 2.34375C1.40964 3.63809 2.46158 4.6875 3.75904 4.6875ZM9.39465 9.375C11.0806 9.375 12.4224 8.01094 12.4224 6.32812C12.4224 4.64531 11.0557 3.28125 9.39465 3.28125C7.70867 3.28125 6.36687 4.64531 6.36687 6.32812C6.34044 8.00977 7.70896 9.375 9.39465 9.375ZM10.8072 11.7188C10.8072 11.2298 10.907 10.7678 11.0603 10.3313C10.9922 10.3271 10.9306 10.3125 10.863 10.3125H7.93215C5.62681 10.3125 3.75904 12.0615 3.75904 14.2178C3.75904 14.6514 4.132 15 4.59307 15H12.4078C11.4386 14.2266 10.8072 13.0518 10.8072 11.7188ZM5.40068 6.32812C5.40068 6.16849 5.42953 6.0167 5.44793 5.86201C5.12756 5.68652 4.77515 5.625 4.40218 5.625H2.58669C1.15825 5.625 0 6.84961 0 8.3584C0 8.66016 0.231621 8.90625 0.517455 8.90625H6.37627C5.77658 8.20898 5.40068 7.31543 5.40068 6.32812ZM16.2079 5.625H14.3918C14.0159 5.625 13.6612 5.71397 13.3387 5.86641C13.3563 6.02051 13.3857 6.16992 13.3857 6.32812C13.3857 6.95713 13.2205 7.54043 12.9555 8.0666C13.5736 7.7168 14.2755 7.5 15.0361 7.5C16.2837 7.5 17.3935 8.04902 18.1667 8.90625H18.277C18.5632 8.90625 18.7952 8.66016 18.7952 8.3584C18.7952 6.84961 17.6381 5.625 16.2079 5.625ZM18.152 10.7432C18.0045 10.2741 17.7529 9.84609 17.4252 9.49189C17.376 9.43737 17.294 9.42375 17.2285 9.46192L16.6655 9.78624C16.4277 9.58447 16.1545 9.42647 15.8593 9.32276V8.64551C15.8593 8.57186 15.8047 8.50646 15.7336 8.49278C15.2473 8.38371 14.7498 8.38647 14.2852 8.49278C14.2403 8.53125 14.1874 8.59863 14.1874 8.64551V9.29707C13.8923 9.40069 13.6189 9.55875 13.3813 9.76055L12.8157 9.43623C12.7529 9.39806 12.6708 9.41168 12.619 9.4662C12.291 9.82069 12.0396 10.2487 11.8948 10.7175C11.8729 10.7911 11.903 10.8674 11.9659 10.9028L12.5288 11.23C12.4742 11.5353 12.4742 11.8514 12.5288 12.157L11.9659 12.4842C11.9003 12.5197 11.8729 12.596 11.8948 12.6696C12.0396 13.1387 12.291 13.5638 12.619 13.9209C12.6709 13.9755 12.7502 13.9891 12.8157 13.9509L13.3813 13.6266C13.619 13.8284 13.8923 13.9864 14.1874 14.0901V14.7417C14.1874 14.8153 14.2394 14.8807 14.3104 14.8943C14.7997 15.0034 15.2942 15.0006 15.7588 14.8943C15.8299 14.8807 15.8845 14.8153 15.8845 14.7417V14.0901C16.1797 13.9865 16.4531 13.8284 16.6907 13.6266L17.2537 13.9509C17.3165 13.9891 17.4012 13.9755 17.4504 13.9209C17.7784 13.5664 18.0298 13.1387 18.1772 12.6696C18.1991 12.596 18.1691 12.5197 18.1035 12.4842L17.5405 12.157C17.5978 11.8517 17.5978 11.5353 17.5405 11.23L18.1035 10.9028C18.1697 10.8926 18.199 10.8164 18.152 10.7432ZM15.0361 12.6562C14.5172 12.6562 14.0964 12.2364 14.0964 11.7188C14.0964 11.2011 14.5172 10.7812 15.0361 10.7812C15.5551 10.7812 15.9759 11.2011 15.9759 11.7188C15.9759 12.2373 15.5559 12.6562 15.0361 12.6562Z"/>
        </g>
    </symbol>
    <symbol id="qualified" viewBox="0 0 14 14">
        <g>
            <path d="M6.11667 3.57656L4.07683 0.212461C4.02214 0.0806367 3.87995 0 3.72683 0H0.438195C0.084093 0 -0.123173 0.398672 0.0799915 0.688516L3.12335 5.03344C3.93464 4.27656 4.96823 3.7543 6.11667 3.57656ZM6.99987 4.375C4.34069 4.375 2.18737 6.52832 2.18737 9.1875C2.18737 11.8467 4.34206 14 6.99987 14C9.65769 14 11.8124 11.8467 11.8124 9.1875C11.8124 6.52832 9.66042 4.375 6.99987 4.375ZM9.52917 8.67617L8.49339 9.68789L8.73606 11.1166C8.7805 11.3695 8.51048 11.5678 8.28134 11.4447L6.99946 10.7715L5.71745 11.4434C5.48845 11.5664 5.21843 11.3682 5.26273 11.1152L5.5054 9.68652L4.46962 8.6748C4.28191 8.49297 4.38855 8.17578 4.64558 8.1375L6.07784 7.929L6.71823 6.63086C6.77292 6.51465 6.88571 6.45654 6.99851 6.45654C7.1113 6.45654 7.22409 6.51602 7.27878 6.63086L7.92136 7.92969L9.35362 8.13818C9.61394 8.17578 9.71784 8.49297 9.52917 8.67617ZM13.5378 0H10.2729C10.1192 0 9.97679 0.0806367 9.89777 0.212461L7.88089 3.55113C9.02933 3.72887 10.0651 4.25168 10.875 5.01074L13.9184 0.66582C14.1229 0.398672 13.9151 0 13.5378 0Z"/>
        </g>
    </symbol>
    <symbol id="arrows" viewBox="0 0 19 19">
        <g>
            <path d="M1.1875 6.4535H14.9477L12.8183 8.55748C12.3545 9.01583 12.3545 9.75835 12.8183 10.2167C13.0477 10.4466 13.352 10.5603 13.6562 10.5603C13.9605 10.5603 14.2641 10.4457 14.4957 10.2165L18.6519 6.10974C19.1158 5.65139 19.1158 4.90887 18.6519 4.45053L14.4957 0.343759C14.0318 -0.114586 13.2803 -0.114586 12.8165 0.343759C12.3526 0.802104 12.3526 1.54462 12.8165 2.00297L14.9477 4.10677H1.1875C0.531035 4.10677 0 4.63148 0 5.28013C0 5.92878 0.531035 6.4535 1.1875 6.4535ZM17.8125 12.3203H4.05605L6.18539 10.2163C6.64926 9.75798 6.64926 9.01546 6.18539 8.55712C5.72152 8.09877 4.97006 8.09877 4.50619 8.55712L0.349941 12.6639C-0.113926 13.1222 -0.113926 13.8648 0.349941 14.3231L4.50619 18.4299C4.73516 18.6601 5.03945 18.7738 5.34375 18.7738C5.64805 18.7738 5.9516 18.6592 6.18316 18.43C6.64703 17.9717 6.64703 17.2292 6.18316 16.7708L4.05605 14.667H17.8125C18.469 14.667 19 14.1423 19 13.4937C19 12.845 18.4693 12.3203 17.8125 12.3203Z"/>
        </g>
    </symbol>
    <symbol id="communication" viewBox="0 0 17 15">
        <g>
            <path d="M8.49993 0.0625C3.80501 0.0625 0.000830216 3.15371 0.000830216 6.96875C0.000830216 8.61662 0.709717 10.1224 1.89241 11.3084C1.47737 12.9808 0.0904787 14.4717 0.0738771 14.4883C-0.000829939 14.563 -0.0215819 14.6786 0.0240724 14.7783C0.0656361 14.8777 0.157642 14.9375 0.265552 14.9375C2.46526 14.9375 4.08723 13.883 4.93391 13.2312C6.01633 13.6393 7.22493 13.875 8.49993 13.875C13.1948 13.875 16.97 10.7828 16.97 6.96875C16.97 3.15471 13.1948 0.0625 8.49993 0.0625Z"/>
        </g>
    </symbol>
    <symbol id="bug" viewBox="0 0 16 16">
        <g>
            <path d="M8 0C3.58125 0 0 3.58125 0 8C0 12.4187 3.58125 16 8 16C12.4187 16 16 12.4187 16 8C16 3.58125 12.4187 0 8 0ZM7.25 4.75C7.25 4.3375 7.5875 4 8 4C8.4125 4 8.75 4.33594 8.75 4.75V8.75C8.75 9.16406 8.41406 9.5 8 9.5C7.58594 9.5 7.25 9.16562 7.25 8.75V4.75ZM8 12.5C7.4575 12.5 7.0175 12.06 7.0175 11.5175C7.0175 10.975 7.45719 10.535 8 10.535C8.54281 10.535 8.9825 10.975 8.9825 11.5175C8.98125 12.0594 8.54375 12.5 8 12.5Z" />
        </g>
    </symbol>
    <symbol id="celebration" viewBox="0 0 20 16">
        <g>
            <path d="M19.9809 13.5488C19.7192 12.9123 18.9887 12.6077 18.3522 12.8733L17.6609 13.1623L16.45 10.0032C17.9459 8.93764 18.4772 6.8722 17.5281 5.23172L14.8213 0.529011C14.5713 0.0956121 14.0682 -0.0881217 13.5994 0.103424L10.0307 1.58361L6.43103 0.0754889C5.96228 -0.1159 5.43103 0.0676771 5.18104 0.501233L2.47324 5.20269C1.52794 6.84317 2.05543 8.88362 3.5498 9.97414L2.33887 13.1582L1.64919 12.8708C1.01263 12.6052 0.286073 12.9098 0.0204505 13.5463C-0.0342365 13.6752 0.0243568 13.8197 0.153262 13.8744L5.22822 15.9796C5.3251 16.0342 5.49772 15.9756 5.55228 15.8468C5.81397 15.2103 5.51322 14.476 4.87666 14.2104L4.18542 13.9253L5.41572 10.6881C5.55634 10.7037 5.69303 10.7271 5.82572 10.7271C7.44289 10.7271 8.93101 9.72407 9.36944 8.06359L10.0022 5.7088L10.6351 8.06359C11.0444 9.69595 12.5607 10.7271 14.1788 10.7271C14.3116 10.7271 14.4483 10.7037 14.5888 10.6881L15.8153 13.9253L15.1241 14.2104C14.4875 14.4759 14.1828 15.1822 14.4485 15.8468C14.5031 15.9756 14.6516 16.0342 14.7766 15.9796L19.8515 13.8744C19.9715 13.8176 20.034 13.6769 19.9809 13.5488ZM8.62163 5.0652L5.11854 3.61221L6.25915 1.63207L9.21225 2.85602L8.62163 5.0652ZM11.3779 5.0652L10.7882 2.85477L13.741 1.63238L14.8816 3.61252L11.3779 5.0652Z"/>
        </g>
    </symbol>
    <symbol id="camera" viewBox="0 0 10 9">
        <g>
            <path d="M3.04845 1.49523L2.8617 2.05548H1.52033C0.886454 2.05548 0.371094 2.57084 0.371094 3.20472V7.80166C0.371094 8.43553 0.886454 8.95089 1.52033 8.95089H8.41574C9.04961 8.95089 9.56497 8.43553 9.56497 7.80166V3.20472C9.56497 2.57084 9.04961 2.05548 8.41574 2.05548H7.07437L6.88761 1.49523C6.7709 1.14328 6.44229 0.90625 6.07058 0.90625H3.86549C3.49378 0.90625 3.16517 1.14328 3.04845 1.49523ZM4.96803 7.22704C4.01632 7.22704 3.24418 6.4549 3.24418 5.50319C3.24418 4.55148 4.01632 3.77934 4.96803 3.77934C5.91974 3.77934 6.69189 4.55148 6.69189 5.50319C6.69189 6.4549 5.91974 7.22704 4.96803 7.22704Z"/>
        </g>
    </symbol>
    <symbol id="discord" viewBox="0 0 512 392">
        <g>
            <path d="M433.431 33.2255C400.798 18.2525 365.804 7.22051 329.215 0.901513C328.549 0.779513 327.883 1.08451 327.54 1.69351C323.039 9.69851 318.054 20.1405 314.563 28.3485C275.21 22.4565 236.058 22.4565 197.512 28.3485C194.02 19.9585 188.854 9.69851 184.333 1.69351C183.99 1.10451 183.324 0.799513 182.658 0.901513C146.09 7.19951 111.096 18.2315 78.4418 33.2255C78.1588 33.3475 77.9168 33.5505 77.7558 33.8145C11.3798 132.98 -6.80425 229.708 2.11575 325.236C2.15575 325.703 2.41875 326.15 2.78175 326.435C46.5748 358.596 88.9967 378.12 130.63 391.062C131.296 391.265 132.002 391.022 132.426 390.473C142.274 377.024 151.053 362.843 158.58 347.93C159.024 347.057 158.6 346.019 157.692 345.674C143.767 340.392 130.508 333.952 117.753 326.639C116.744 326.05 116.663 324.606 117.592 323.915C120.276 321.904 122.961 319.812 125.524 317.699C125.988 317.313 126.634 317.232 127.179 317.475C210.971 355.732 301.686 355.732 384.489 317.475C385.034 317.211 385.68 317.293 386.164 317.678C388.728 319.791 391.412 321.904 394.116 323.915C395.044 324.606 394.983 326.049 393.975 326.638C381.22 334.094 367.961 340.392 354.016 345.654C353.108 345.999 352.704 347.055 353.149 347.928C360.838 362.82 369.617 377.002 379.283 390.452C379.687 391.021 380.413 391.265 381.079 391.061C422.914 378.12 465.336 358.595 509.129 326.434C509.513 326.15 509.755 325.723 509.795 325.256C520.471 214.815 491.914 118.88 434.095 33.8345C433.955 33.5505 433.713 33.3475 433.431 33.2255ZM171.095 267.069C145.868 267.069 125.081 243.909 125.081 215.465C125.081 187.022 145.464 163.861 171.095 163.861C196.926 163.861 217.512 187.225 217.108 215.465C217.108 243.909 196.724 267.069 171.095 267.069ZM341.222 267.069C315.996 267.069 295.209 243.909 295.209 215.465C295.209 187.022 315.592 163.861 341.222 163.861C367.054 163.861 387.639 187.225 387.236 215.465C387.236 243.909 367.055 267.069 341.222 267.069Z" fill="#5865F2"/>
        </g>
    </symbol>
    <symbol id="eyePasswordHide" viewBox="0 0 24 24">
        <g>
            <path d="M2 2L22 22" stroke-width="2" stroke-linecap="round" stroke-linejoin="round"/>
            <path d="M6.71277 6.7226C3.66479 8.79527 2 12 2 12C2 12 5.63636 19 12 19C14.0503 19 15.8174 18.2734 17.2711 17.2884M11 5.05822C11.3254 5.02013 11.6588 5 12 5C18.3636 5 22 12 22 12C22 12 21.3082 13.3317 20 14.8335" stroke-width="2" stroke-linecap="round" stroke-linejoin="round"/>
            <path d="M14 14.2362C13.4692 14.7112 12.7684 15.0001 12 15.0001C10.3431 15.0001 9 13.657 9 12.0001C9 11.1764 9.33193 10.4303 9.86932 9.88818" stroke-width="2" stroke-linecap="round" stroke-linejoin="round"/>
        </g>
    </symbol>
    <symbol id="eyePassword" viewBox="0 0 24 24">
        <g>
            <path d="M1 12C1 12 5 4 12 4C19 4 23 12 23 12" stroke-width="2" stroke-linecap="round" stroke-linejoin="round"/>
            <path d="M1 12C1 12 5 20 12 20C19 20 23 12 23 12" stroke-width="2" stroke-linecap="round" stroke-linejoin="round"/>
            <circle cx="12" cy="12" r="3" stroke-width="2" stroke-linecap="round" stroke-linejoin="round"/>
        </g>
    </symbol>
    <symbol id="changeRole" viewBox="0 0 15 20">
        <g>
            <path d="M2.5 0C1.12109 0 0 1.12109 0 2.5V17.5C0 18.8789 1.12109 20 2.5 20H12.5C13.8789 20 15 18.8789 15 17.5V2.5C15 1.12109 13.8789 0 12.5 0H2.5ZM6.25 12.5H8.75C10.4766 12.5 11.875 13.8984 11.875 15.625C11.875 15.9688 11.5938 16.25 11.25 16.25H3.75C3.40625 16.25 3.125 15.9688 3.125 15.625C3.125 13.8984 4.52344 12.5 6.25 12.5ZM10 8.75C10 10.1289 8.87891 11.25 7.5 11.25C6.12109 11.25 5 10.1289 5 8.75C5 7.37109 6.12109 6.25 7.5 6.25C8.87891 6.25 10 7.37109 10 8.75ZM5.625 2.5H9.375C9.71875 2.5 10 2.78125 10 3.125C10 3.46875 9.71875 3.75 9.375 3.75H5.625C5.28125 3.75 5 3.46875 5 3.125C5 2.78125 5.28125 2.5 5.625 2.5Z"/>
        </g>
    </symbol>
    <symbol id="changePosition" viewBox="0 0 13 21">
        <g>
            <path d="M13 5.90625C13 9.16699 10.3797 11.8125 7.15005 11.8125C3.92036 11.8125 1.30005 9.16699 1.30005 5.90625C1.30005 2.64551 3.92036 0 7.15005 0C10.3797 0 13 2.64551 13 5.90625ZM7.15005 3.28125C7.50755 3.28125 7.80005 2.98594 7.80005 2.625C7.80005 2.26406 7.50755 1.96875 7.15005 1.96875C4.99692 1.96875 3.25005 3.73242 3.25005 5.90625C3.25005 6.26719 3.54255 6.5625 3.90005 6.5625C4.25755 6.5625 4.55005 6.26719 4.55005 5.90625C4.55005 4.4584 5.71599 3.28125 7.15005 3.28125ZM5.85005 19.6875V13.0061C6.27255 13.084 6.70724 13.125 7.15005 13.125C7.59286 13.125 8.02755 13.084 8.45005 13.0061V19.6875C8.45005 20.4135 7.86911 21 7.15005 21C6.43099 21 5.85005 20.4135 5.85005 19.6875Z"/>
        </g>
    </symbol>
      <symbol id="popupCreerOrga" width="35" height="29" viewBox="0 0 35 29" fill="none" xmlns="http://www.w3.org/2000/svg">
        <g>
            <path d="M12.5378 3.84375C12.5378 2.23865 13.8337 0.9375 15.4311 0.9375H19.2889C20.8862 0.9375 22.1822 2.23865 22.1822 3.84375V7.71875C22.1822 9.32324 20.8862 10.625 19.2889 10.625H18.8067V13.0469H27.9689C29.8315 13.0469 31.3444 14.5666 31.3444 16.4375V18.375H31.8267C33.424 18.375 34.72 19.6768 34.72 21.2812V25.1562C34.72 26.7607 33.424 28.0625 31.8267 28.0625H27.9689C26.3715 28.0625 25.0756 26.7607 25.0756 25.1562V21.2812C25.0756 19.6768 26.3715 18.375 27.9689 18.375H28.4511V16.4375C28.4511 16.1711 28.2341 15.9531 27.9689 15.9531H18.8067V18.375H19.2889C20.8862 18.375 22.1822 19.6768 22.1822 21.2812V25.1562C22.1822 26.7607 20.8862 28.0625 19.2889 28.0625H15.4311C13.8337 28.0625 12.5378 26.7607 12.5378 25.1562V21.2812C12.5378 19.6768 13.8337 18.375 15.4311 18.375H15.9133V15.9531H6.75111C6.48589 15.9531 6.26889 16.1711 6.26889 16.4375V18.375H6.75111C8.34847 18.375 9.64444 19.6768 9.64444 21.2812V25.1562C9.64444 26.7607 8.34847 28.0625 6.75111 28.0625H2.89333C1.29537 28.0625 0 26.7607 0 25.1562V21.2812C0 19.6768 1.29537 18.375 2.89333 18.375H3.37556V16.4375C3.37556 14.5666 4.88672 13.0469 6.75111 13.0469H15.9133V10.625H15.4311C13.8337 10.625 12.5378 9.32324 12.5378 7.71875V3.84375Z" fill="#FAFAFA"/>
        </g>
    </symbol>
    <symbol id="popupCreerEquipe" width="35" height="29" viewBox="0 0 35 29" fill="none" xmlns="http://www.w3.org/2000/svg">
        <g>
            <path d="M17.1798 16.875C20.211 16.875 22.6234 14.4197 22.6234 11.3906C22.6234 8.36156 20.1661 5.90625 17.1798 5.90625C14.1485 5.90625 11.7361 8.36156 11.7361 11.3906C11.6886 14.4176 14.1491 16.875 17.1798 16.875ZM19.8198 18.5625H14.5503C10.4055 18.5625 7.04746 21.7107 7.04746 25.592C7.04746 26.3725 7.71802 27 8.54698 27H25.8231C26.6521 27 27.3226 26.3725 27.3226 25.592C27.3226 21.7107 23.9646 18.5625 19.8198 18.5625ZM27.3226 8.4375C29.6553 8.4375 31.5466 6.54855 31.5466 4.21875C31.5466 1.88895 29.6564 0 27.3226 0C24.9899 0 23.0986 1.88895 23.0986 4.21875C23.0986 6.54855 24.9889 8.4375 27.3226 8.4375ZM9.99897 11.3906C9.99897 11.1033 10.0508 10.8301 10.0839 10.5516C9.50794 10.2357 8.87434 10.125 8.20378 10.125H4.93968C2.37149 10.125 0.289062 12.3293 0.289062 15.0451C0.289062 15.5883 0.705496 16.0312 1.2194 16.0312H11.753C10.6748 14.7762 9.99897 13.1678 9.99897 11.3906ZM7.04746 8.4375C9.38016 8.4375 11.2715 6.54855 11.2715 4.21875C11.2715 1.88895 9.38122 0 7.04746 0C4.71476 0 2.82346 1.88895 2.82346 4.21875C2.82346 6.54855 4.71476 8.4375 7.04746 8.4375ZM29.4294 10.125H26.1642C25.4884 10.125 24.8505 10.2852 24.2708 10.5595C24.3025 10.8369 24.3553 11.1059 24.3553 11.3906C24.3553 13.1683 23.6805 14.7767 22.6044 16.0312H33.1486C33.6639 16.0312 34.081 15.5883 34.081 15.0451C34.081 12.3293 32.0007 10.125 29.4294 10.125Z" fill="#FAFAFA"/>
        </g>
    </symbol>
    <symbol id="popupCreerLigue" width="35" height="29" viewBox="0 0 35 29" fill="none" xmlns="http://www.w3.org/2000/svg">
        <g>
            <path d="M23.2725 3.37887C23.1667 2.93631 22.7721 2.625 22.3206 2.625H18.2201C18.23 2.11436 18.2245 1.65293 18.2138 1.27066C18.1957 0.559043 17.6222 0 16.9143 0H6.51675C5.80894 0 5.23536 0.559043 5.21502 1.27066C5.17027 1.65293 5.19875 2.11436 5.21095 2.625H1.10887C0.657329 2.625 0.265874 2.93631 0.159091 3.37887C0.12606 3.51832 -0.639115 6.85781 1.50793 10.0857C3.03096 12.3752 5.60025 13.9835 9.13527 14.901C9.89597 15.0981 10.413 15.8058 10.413 16.5978C10.4138 17.5752 9.62057 18.375 8.64834 18.375H8.46122C7.38281 18.375 6.50902 19.2564 6.50902 20.3438C6.50902 20.7062 6.80041 21 7.12328 21H16.1988C16.5582 21 16.813 20.7062 16.813 20.3438C16.813 19.2564 15.9393 18.375 14.8609 18.375H14.6719C13.7013 18.375 12.9081 17.5752 12.9081 16.597C12.9081 15.805 13.4251 15.097 14.1858 14.9002C17.7233 13.9839 20.2918 12.3756 21.8132 10.0849C24.0698 6.85781 23.305 3.51832 23.2725 3.37887ZM3.14893 9.01523C2.01235 7.32539 1.91228 5.56582 1.96801 4.59375H5.23821C5.45621 7.0391 6.06603 9.9709 7.58417 12.3498C5.58927 11.55 4.10448 10.4344 3.14893 9.01523ZM20.2826 9.01523C19.3291 10.4344 17.8443 11.5479 15.8485 12.3465C17.3659 9.9709 17.9761 7.03828 18.1917 4.59375H21.4619C21.4826 5.56582 21.4175 7.32949 20.2826 9.01523Z" fill="#FAFAFA"/>
        </g>
    </symbol>
    <symbol id="leftArrow" xmlns="http://www.w3.org/2000/svg" viewBox="0 0 25 25">
        <g>
            <path style="fill:#232326" d="M24 12.001H2.914l5.294-5.295-.707-.707L1 12.501l6.5 6.5.707-.707-5.293-5.293H24v-1z" data-name="Left"/>
        </g>
    </symbol>
    <symbol id="clock" xmlns="http://www.w3.org/2000/svg" viewBox="0 0 512 512" xmlns:xlink="http://www.w3.org/1999/xlink" enable-background="new 0 0 512 512">
         <g>
            <g>
            <path d="m256,51.8c-112.6,0-204.2,91.6-204.2,204.2s91.6,204.2 204.2,204.2 204.2-91.6 204.2-204.2-91.6-204.2-204.2-204.2v-1.42109e-14zm0,449.2c-135.1,0-245-109.9-245-245s109.9-245 245-245 245,109.9 245,245-109.9,245-245,245z"/>
            <path d="m327.9,276.4h-71.9c-11.3,0-20.4-9.1-20.4-20.4v-132.2c0-11.3 9.1-20.4 20.4-20.4 11.3,0 20.4,9.1 20.4,20.4v111.8h51.5c11.3,0 20.4,9.1 20.4,20.4s-9.1,20.4-20.4,20.4z"/>
            </g>
        </g>
    </symbol>
    <symbol id="lineMatch" width="28" height="6" viewBox="0 0 28 6" fill="none" xmlns="http://www.w3.org/2000/svg">
        <line x1="3" y1="3" x2="25" y2="3" stroke="#575757" stroke-width="6" stroke-linecap="round"/>
    </symbol>
    <symbol id="unlock" xmlns="http://www.w3.org/2000/svg"  viewBox="0 0 64 64" width="30px" height="30px">
        <path d="M 45 9 C 37.832 9 32 14.832 32 22 L 32 27 L 12 27 C 8.686 27 6 29.686 6 33 L 6 49 C 6 52.314 8.686 55 12 55 L 34 55 C 37.314 55 40 52.314 40 49 L 40 33 C 40 30.388126 38.329341 28.171862 36 27.347656 L 36 22 C 36 17.038 40.037 13 45 13 C 49.963 13 54 17.038 54 22 L 54 29 C 54 30.105 54.896 31 56 31 C 57.104 31 58 30.105 58 29 L 58 22 C 58 14.832 52.168 9 45 9 z"/>
    </symbol>

    <symbol id="cog" xmlns="http://www.w3.org/2000/svg"  viewBox="0 0 24 24" style="fill: rgba(0, 0, 0, 1);transform: ;msFilter:;">
        <path d="m2.344 15.271 2 3.46a1 1 0 0 0 1.366.365l1.396-.806c.58.457 1.221.832 1.895 1.112V21a1 1 0 0 0 1 1h4a1 1 0 0 0 1-1v-1.598a8.094 8.094 0 0 0 1.895-1.112l1.396.806c.477.275 1.091.11 1.366-.365l2-3.46a1.004 1.004 0 0 0-.365-1.366l-1.372-.793a7.683 7.683 0 0 0-.002-2.224l1.372-.793c.476-.275.641-.89.365-1.366l-2-3.46a1 1 0 0 0-1.366-.365l-1.396.806A8.034 8.034 0 0 0 15 4.598V3a1 1 0 0 0-1-1h-4a1 1 0 0 0-1 1v1.598A8.094 8.094 0 0 0 7.105 5.71L5.71 4.904a.999.999 0 0 0-1.366.365l-2 3.46a1.004 1.004 0 0 0 .365 1.366l1.372.793a7.683 7.683 0 0 0 0 2.224l-1.372.793c-.476.275-.641.89-.365 1.366zM12 8c2.206 0 4 1.794 4 4s-1.794 4-4 4-4-1.794-4-4 1.794-4 4-4z"></path>
    </symbol>
    <symbol id='help-circle' xmlns="http://www.w3.org/2000/svg" viewBox="0 0 24 24" style="fill: rgba(0, 0, 0, 1);transform: ;msFilter:;">
        <path d="M12 2C6.486 2 2 6.486 2 12s4.486 10 10 10 10-4.486 10-10S17.514 2 12 2zm1 16h-2v-2h2v2zm.976-4.885c-.196.158-.385.309-.535.459-.408.407-.44.777-.441.793v.133h-2v-.167c0-.118.029-1.177 1.026-2.174.195-.195.437-.393.691-.599.734-.595 1.216-1.029 1.216-1.627a1.934 1.934 0 0 0-3.867.001h-2C8.066 7.765 9.831 6 12 6s3.934 1.765 3.934 3.934c0 1.597-1.179 2.55-1.958 3.181z"></path>
    </symbol>
    <symbol id='customize' xmlns="http://www.w3.org/2000/svg" viewBox="0 0 24 24" style="fill: rgba(0, 0, 0, 1);transform: ;msFilter:;">
        <path d="M4 13h6a1 1 0 0 0 1-1V4a1 1 0 0 0-1-1H4a1 1 0 0 0-1 1v8a1 1 0 0 0 1 1zm-1 7a1 1 0 0 0 1 1h6a1 1 0 0 0 1-1v-4a1 1 0 0 0-1-1H4a1 1 0 0 0-1 1v4zm10 0a1 1 0 0 0 1 1h6a1 1 0 0 0 1-1v-7a1 1 0 0 0-1-1h-6a1 1 0 0 0-1 1v7zm1-10h6a1 1 0 0 0 1-1V4a1 1 0 0 0-1-1h-6a1 1 0 0 0-1 1v5a1 1 0 0 0 1 1z"></path>
    </symbol>
    <symbol id='envelope' xmlns="http://www.w3.org/2000/svg" viewBox="0 0 24 24" style="fill: rgba(0, 0, 0, 1);transform: ;msFilter:;">
        <path d="M20 4H4a2 2 0 0 0-2 2v12a2 2 0 0 0 2 2h16a2 2 0 0 0 2-2V6a2 2 0 0 0-2-2zm0 4.7-8 5.334L4 8.7V6.297l8 5.333 8-5.333V8.7z"></path>
    </symbol>
    <symbol id='menu' xmlns="http://www.w3.org/2000/svg" viewBox="0 0 24 24" style="fill: rgba(0, 0, 0, 1);transform: ;msFilter:;">
        <path d="M4 6h16v2H4zm0 5h16v2H4zm0 5h16v2H4z"></path>
    </symbol>
    <symbol id='report' xmlns="http://www.w3.org/2000/svg" viewBox="0 0 24 24" style="fill: rgba(0, 0, 0, 1);transform: ;msFilter:;">
        <path d="m20 8-6-6H6a2 2 0 0 0-2 2v16a2 2 0 0 0 2 2h12a2 2 0 0 0 2-2V8zM9 19H7v-9h2v9zm4 0h-2v-6h2v6zm4 0h-2v-3h2v3zM14 9h-1V4l5 5h-4z"></path>
    </symbol>
    <symbol id='male' xmlns="http://www.w3.org/2000/svg" viewBox="0 0 24 24" style="fill: rgba(0, 0, 0, 1);transform: ;msFilter:;">
        <circle cx="12" cy="4" r="2"></circle>
        <path d="M15 7H9a1 1 0 0 0-1 1v7h2v7h4v-7h2V8a1 1 0 0 0-1-1z"></path>
    </symbol>
    <symbol id='messenger' xmlns="http://www.w3.org/2000/svg" viewBox="0 0 24 24" style="fill: rgba(0, 0, 0, 1);transform: ;msFilter:;">
        <path d="M12 3c-4.92 0-8.91 3.729-8.91 8.332 0 2.616 1.291 4.952 3.311 6.479V21l3.041-1.687c.811.228 1.668.35 2.559.35 4.92 0 8.91-3.73 8.91-8.331C20.91 6.729 16.92 3 12 3zm.938 11.172-2.305-2.394-4.438 2.454 4.865-5.163 2.305 2.395 4.439-2.455-4.866 5.163z"></path>
    </symbol>
    <symbol id='calendar' xmlns="http://www.w3.org/2000/svg" viewBox="0 0 24 24" style="fill: rgba(0, 0, 0, 1);transform: ;msFilter:;">
        <path d="M21 20V6c0-1.103-.897-2-2-2h-2V2h-2v2H9V2H7v2H5c-1.103 0-2 .897-2 2v14c0 1.103.897 2 2 2h14c1.103 0 2-.897 2-2zM9 18H7v-2h2v2zm0-4H7v-2h2v2zm4 4h-2v-2h2v2zm0-4h-2v-2h2v2zm4 4h-2v-2h2v2zm0-4h-2v-2h2v2zm2-5H5V7h14v2z"></path>
    </symbol>
    <symbol id='log-out' xmlns="http://www.w3.org/2000/svg" viewBox="0 0 24 24" style="fill: rgba(0, 0, 0, 1);transform: ;msFilter:;">
        <path d="M16 13v-2H7V8l-5 4 5 4v-3z"></path>
        <path d="M20 3h-9c-1.103 0-2 .897-2 2v4h2V5h9v14h-9v-4H9v4c0 1.103.897 2 2 2h9c1.103 0 2-.897 2-2V5c0-1.103-.897-2-2-2z"></path>
    </symbol>
</svg>
